{"glyphs":{"0":{"ha":778,"x_min":0,"x_max":653,"o":"m 125 111 l 528 111 l 611 28 l 583 0 l 69 0 l 42 28 l 125 111 m 0 69 l 0 500 l 28 528 l 56 528 l 111 472 l 111 125 l 28 42 l 0 69 m 542 125 l 542 472 l 597 528 l 625 528 l 653 497 l 653 69 l 625 42 l 542 125 m 0 583 l 0 1014 l 28 1042 l 111 958 l 111 611 l 56 556 l 28 556 l 0 583 m 542 611 l 542 958 l 625 1042 l 653 1014 l 653 583 l 625 556 l 597 556 l 542 611 m 69 1083 l 583 1083 l 611 1056 l 528 972 l 125 972 l 42 1056 l 69 1083 m 444 958 l 528 958 l 528 875 l 417 611 l 333 611 l 333 694 l 444 958 m 208 125 l 125 125 l 125 208 l 236 472 l 319 472 l 319 389 l 208 125 z "},"1":{"ha":778,"x_min":333,"x_max":653,"o":"m 542 125 l 542 472 l 597 528 l 625 528 l 653 497 l 653 69 l 625 42 l 542 125 m 542 611 l 542 958 l 625 1042 l 653 1014 l 653 583 l 625 556 l 597 556 l 542 611 m 444 958 l 528 958 l 528 875 l 417 611 l 333 611 l 333 694 l 444 958 z "},"2":{"ha":778,"x_min":0,"x_max":653,"o":"m 125 111 l 528 111 l 611 28 l 583 0 l 69 0 l 42 28 l 125 111 m 0 69 l 0 500 l 28 528 l 56 528 l 111 472 l 111 125 l 28 42 l 0 69 m 119 597 l 306 597 l 319 542 l 306 486 l 125 486 l 69 542 l 119 597 m 542 611 l 542 958 l 625 1042 l 653 1014 l 653 583 l 625 556 l 597 556 l 542 611 m 69 1083 l 583 1083 l 611 1056 l 528 972 l 125 972 l 42 1056 l 69 1083 m 347 597 l 528 597 l 583 542 l 528 486 l 347 486 l 333 542 l 347 597 z "},"3":{"ha":778,"x_min":42,"x_max":653,"o":"m 125 111 l 528 111 l 611 28 l 583 0 l 69 0 l 42 28 l 125 111 m 542 125 l 542 472 l 597 528 l 625 528 l 653 497 l 653 69 l 625 42 l 542 125 m 119 597 l 306 597 l 319 542 l 306 486 l 125 486 l 69 542 l 119 597 m 542 611 l 542 958 l 625 1042 l 653 1014 l 653 583 l 625 556 l 597 556 l 542 611 m 69 1083 l 583 1083 l 611 1056 l 528 972 l 125 972 l 42 1056 l 69 1083 m 347 597 l 528 597 l 583 542 l 528 486 l 347 486 l 333 542 l 347 597 z "},"4":{"ha":778,"x_min":0,"x_max":653,"o":"m 542 125 l 542 472 l 597 528 l 625 528 l 653 497 l 653 69 l 625 42 l 542 125 m 119 597 l 306 597 l 319 542 l 306 486 l 125 486 l 69 542 l 119 597 m 0 583 l 0 1014 l 28 1042 l 111 958 l 111 611 l 56 556 l 28 556 l 0 583 m 542 611 l 542 958 l 625 1042 l 653 1014 l 653 583 l 625 556 l 597 556 l 542 611 m 347 597 l 528 597 l 583 542 l 528 486 l 347 486 l 333 542 l 347 597 z "},"5":{"ha":778,"x_min":0,"x_max":653,"o":"m 125 111 l 528 111 l 611 28 l 583 0 l 69 0 l 42 28 l 125 111 m 542 125 l 542 472 l 597 528 l 625 528 l 653 497 l 653 69 l 625 42 l 542 125 m 119 597 l 306 597 l 319 542 l 306 486 l 125 486 l 69 542 l 119 597 m 0 583 l 0 1014 l 28 1042 l 111 958 l 111 611 l 56 556 l 28 556 l 0 583 m 69 1083 l 583 1083 l 611 1056 l 528 972 l 125 972 l 42 1056 l 69 1083 m 347 597 l 528 597 l 583 542 l 528 486 l 347 486 l 333 542 l 347 597 z "},"6":{"ha":778,"x_min":0,"x_max":653,"o":"m 125 111 l 528 111 l 611 28 l 583 0 l 69 0 l 42 28 l 125 111 m 0 69 l 0 500 l 28 528 l 56 528 l 111 472 l 111 125 l 28 42 l 0 69 m 542 125 l 542 472 l 597 528 l 625 528 l 653 497 l 653 69 l 625 42 l 542 125 m 119 597 l 306 597 l 319 542 l 306 486 l 125 486 l 69 542 l 119 597 m 0 583 l 0 1014 l 28 1042 l 111 958 l 111 611 l 56 556 l 28 556 l 0 583 m 69 1083 l 583 1083 l 611 1056 l 528 972 l 125 972 l 42 1056 l 69 1083 m 347 597 l 528 597 l 583 542 l 528 486 l 347 486 l 333 542 l 347 597 z "},"7":{"ha":778,"x_min":0,"x_max":653,"o":"m 542 125 l 542 472 l 597 528 l 625 528 l 653 497 l 653 69 l 625 42 l 542 125 m 0 583 l 0 1014 l 28 1042 l 111 958 l 111 611 l 56 556 l 28 556 l 0 583 m 542 611 l 542 958 l 625 1042 l 653 1014 l 653 583 l 625 556 l 597 556 l 542 611 m 69 1083 l 583 1083 l 611 1056 l 528 972 l 125 972 l 42 1056 l 69 1083 z "},"8":{"ha":778,"x_min":0,"x_max":653,"o":"m 125 111 l 528 111 l 611 28 l 583 0 l 69 0 l 42 28 l 125 111 m 0 69 l 0 500 l 28 528 l 56 528 l 111 472 l 111 125 l 28 42 l 0 69 m 542 125 l 542 472 l 597 528 l 625 528 l 653 497 l 653 69 l 625 42 l 542 125 m 119 597 l 306 597 l 319 542 l 306 486 l 125 486 l 69 542 l 119 597 m 0 583 l 0 1014 l 28 1042 l 111 958 l 111 611 l 56 556 l 28 556 l 0 583 m 542 611 l 542 958 l 625 1042 l 653 1014 l 653 583 l 625 556 l 597 556 l 542 611 m 69 1083 l 583 1083 l 611 1056 l 528 972 l 125 972 l 42 1056 l 69 1083 m 347 597 l 528 597 l 583 542 l 528 486 l 347 486 l 333 542 l 347 597 z "},"9":{"ha":778,"x_min":0,"x_max":653,"o":"m 125 111 l 528 111 l 611 28 l 583 0 l 69 0 l 42 28 l 125 111 m 542 125 l 542 472 l 597 528 l 625 528 l 653 497 l 653 69 l 625 42 l 542 125 m 119 597 l 306 597 l 319 542 l 306 486 l 125 486 l 69 542 l 119 597 m 0 583 l 0 1014 l 28 1042 l 111 958 l 111 611 l 56 556 l 28 556 l 0 583 m 542 611 l 542 958 l 625 1042 l 653 1014 l 653 583 l 625 556 l 597 556 l 542 611 m 69 1083 l 583 1083 l 611 1056 l 528 972 l 125 972 l 42 1056 l 69 1083 m 347 597 l 528 597 l 583 542 l 528 486 l 347 486 l 333 542 l 347 597 z "}," ":{"ha":778,"x_min":0,"x_max":0,"o":""},";":{"ha":236,"x_min":0,"x_max":111,"o":"m 0 847 l 111 847 l 111 736 l 0 736 l 0 847 m 0 111 l 111 111 l 111 0 l 0 0 l 0 111 m 0 -56 l 111 -56 l 111 -167 l 0 -167 l 0 -56 z "},"M":{"ha":778,"x_min":0,"x_max":653,"o":"m 0 69 l 0 500 l 28 528 l 56 528 l 111 472 l 111 125 l 28 42 l 0 69 m 542 125 l 542 472 l 597 528 l 625 528 l 653 497 l 653 69 l 625 42 l 542 125 m 0 583 l 0 1014 l 28 1042 l 111 958 l 111 611 l 56 556 l 28 556 l 0 583 m 542 611 l 542 958 l 625 1042 l 653 1014 l 653 583 l 625 556 l 597 556 l 542 611 m 69 1083 l 583 1083 l 611 1056 l 528 972 l 125 972 l 42 1056 l 69 1083 m 271 958 l 382 958 l 382 833 l 347 750 l 306 750 l 271 833 l 271 958 z "},"N":{"ha":778,"x_min":0,"x_max":653,"o":"m 0 69 l 0 500 l 28 528 l 56 528 l 111 472 l 111 125 l 28 42 l 0 69 m 542 125 l 542 472 l 597 528 l 625 528 l 653 497 l 653 69 l 625 42 l 542 125 m 0 583 l 0 1014 l 28 1042 l 111 958 l 111 611 l 56 556 l 28 556 l 0 583 m 542 611 l 542 958 l 625 1042 l 653 1014 l 653 583 l 625 556 l 597 556 l 542 611 m 319 694 l 319 611 l 236 611 l 125 875 l 125 958 l 208 958 l 319 694 m 333 389 l 333 472 l 417 472 l 528 208 l 528 125 l 444 125 l 333 389 z "},"O":{"ha":778,"x_min":0,"x_max":653,"o":"m 125 111 l 528 111 l 611 28 l 583 0 l 69 0 l 42 28 l 125 111 m 0 69 l 0 500 l 28 528 l 56 528 l 111 472 l 111 125 l 28 42 l 0 69 m 542 125 l 542 472 l 597 528 l 625 528 l 653 497 l 653 69 l 625 42 l 542 125 m 0 583 l 0 1014 l 28 1042 l 111 958 l 111 611 l 56 556 l 28 556 l 0 583 m 542 611 l 542 958 l 625 1042 l 653 1014 l 653 583 l 625 556 l 597 556 l 542 611 m 69 1083 l 583 1083 l 611 1056 l 528 972 l 125 972 l 42 1056 l 69 1083 z "},"P":{"ha":778,"x_min":0,"x_max":653,"o":"m 0 69 l 0 500 l 28 528 l 56 528 l 111 472 l 111 125 l 28 42 l 0 69 m 119 597 l 306 597 l 319 542 l 306 486 l 125 486 l 69 542 l 119 597 m 0 583 l 0 1014 l 28 1042 l 111 958 l 111 611 l 56 556 l 28 556 l 0 583 m 542 611 l 542 958 l 625 1042 l 653 1014 l 653 583 l 625 556 l 597 556 l 542 611 m 69 1083 l 583 1083 l 611 1056 l 528 972 l 125 972 l 42 1056 l 69 1083 m 347 597 l 528 597 l 583 542 l 528 486 l 347 486 l 333 542 l 347 597 z "},"Q":{"ha":778,"x_min":0,"x_max":653,"o":"m 125 111 l 528 111 l 611 28 l 583 0 l 69 0 l 42 28 l 125 111 m 0 69 l 0 500 l 28 528 l 56 528 l 111 472 l 111 125 l 28 42 l 0 69 m 542 125 l 542 472 l 597 528 l 625 528 l 653 497 l 653 69 l 625 42 l 542 125 m 0 583 l 0 1014 l 28 1042 l 111 958 l 111 611 l 56 556 l 28 556 l 0 583 m 542 611 l 542 958 l 625 1042 l 653 1014 l 653 583 l 625 556 l 597 556 l 542 611 m 69 1083 l 583 1083 l 611 1056 l 528 972 l 125 972 l 42 1056 l 69 1083 m 333 389 l 333 472 l 417 472 l 528 208 l 528 125 l 444 125 l 333 389 z "},"R":{"ha":778,"x_min":0,"x_max":653,"o":"m 0 69 l 0 500 l 28 528 l 56 528 l 111 472 l 111 125 l 28 42 l 0 69 m 119 597 l 306 597 l 319 542 l 306 486 l 125 486 l 69 542 l 119 597 m 0 583 l 0 1014 l 28 1042 l 111 958 l 111 611 l 56 556 l 28 556 l 0 583 m 542 611 l 542 958 l 625 1042 l 653 1014 l 653 583 l 625 556 l 597 556 l 542 611 m 69 1083 l 583 1083 l 611 1056 l 528 972 l 125 972 l 42 1056 l 69 1083 m 347 597 l 528 597 l 583 542 l 528 486 l 347 486 l 333 542 l 347 597 m 333 389 l 333 472 l 417 472 l 528 208 l 528 125 l 444 125 l 333 389 z "},"T":{"ha":778,"x_min":42,"x_max":611,"o":"m 69 1083 l 583 1083 l 611 1056 l 528 972 l 125 972 l 42 1056 l 69 1083 m 271 958 l 382 958 l 382 833 l 347 750 l 306 750 l 271 833 l 271 958 m 271 250 l 306 333 l 347 333 l 382 250 l 382 125 l 271 125 l 271 250 z "},"<":{"ha":778,"x_min":333,"x_max":528,"o":"m 444 958 l 528 958 l 528 875 l 417 611 l 333 611 l 333 694 l 444 958 m 333 389 l 333 472 l 417 472 l 528 208 l 528 125 l 444 125 l 333 389 z "},"U":{"ha":778,"x_min":0,"x_max":653,"o":"m 125 111 l 528 111 l 611 28 l 583 0 l 69 0 l 42 28 l 125 111 m 0 69 l 0 500 l 28 528 l 56 528 l 111 472 l 111 125 l 28 42 l 0 69 m 542 125 l 542 472 l 597 528 l 625 528 l 653 497 l 653 69 l 625 42 l 542 125 m 0 583 l 0 1014 l 28 1042 l 111 958 l 111 611 l 56 556 l 28 556 l 0 583 m 542 611 l 542 958 l 625 1042 l 653 1014 l 653 583 l 625 556 l 597 556 l 542 611 z "},"V":{"ha":778,"x_min":125,"x_max":653,"o":"m 542 125 l 542 472 l 597 528 l 625 528 l 653 497 l 653 69 l 625 42 l 542 125 m 542 611 l 542 958 l 625 1042 l 653 1014 l 653 583 l 625 556 l 597 556 l 542 611 m 319 694 l 319 611 l 236 611 l 125 875 l 125 958 l 208 958 l 319 694 m 333 389 l 333 472 l 417 472 l 528 208 l 528 125 l 444 125 l 333 389 z "},"W":{"ha":778,"x_min":0,"x_max":653,"o":"m 125 111 l 528 111 l 611 28 l 583 0 l 69 0 l 42 28 l 125 111 m 0 69 l 0 500 l 28 528 l 56 528 l 111 472 l 111 125 l 28 42 l 0 69 m 542 125 l 542 472 l 597 528 l 625 528 l 653 497 l 653 69 l 625 42 l 542 125 m 0 583 l 0 1014 l 28 1042 l 111 958 l 111 611 l 56 556 l 28 556 l 0 583 m 542 611 l 542 958 l 625 1042 l 653 1014 l 653 583 l 625 556 l 597 556 l 542 611 m 271 250 l 306 333 l 347 333 l 382 250 l 382 125 l 271 125 l 271 250 z "},"Y":{"ha":778,"x_min":0,"x_max":653,"o":"m 125 111 l 528 111 l 611 28 l 583 0 l 69 0 l 42 28 l 125 111 m 542 125 l 542 472 l 597 528 l 625 528 l 653 497 l 653 69 l 625 42 l 542 125 m 119 597 l 306 597 l 319 542 l 306 486 l 125 486 l 69 542 l 119 597 m 0 583 l 0 1014 l 28 1042 l 111 958 l 111 611 l 56 556 l 28 556 l 0 583 m 542 611 l 542 958 l 625 1042 l 653 1014 l 653 583 l 625 556 l 597 556 l 542 611 m 347 597 l 528 597 l 583 542 l 528 486 l 347 486 l 333 542 l 347 597 z "},"X":{"ha":778,"x_min":125,"x_max":528,"o":"m 319 694 l 319 611 l 236 611 l 125 875 l 125 958 l 208 958 l 319 694 m 444 958 l 528 958 l 528 875 l 417 611 l 333 611 l 333 694 l 444 958 m 208 125 l 125 125 l 125 208 l 236 472 l 319 472 l 319 389 l 208 125 m 333 389 l 333 472 l 417 472 l 528 208 l 528 125 l 444 125 l 333 389 z "},"Z":{"ha":778,"x_min":42,"x_max":611,"o":"m 125 111 l 528 111 l 611 28 l 583 0 l 69 0 l 42 28 l 125 111 m 69 1083 l 583 1083 l 611 1056 l 528 972 l 125 972 l 42 1056 l 69 1083 m 444 958 l 528 958 l 528 875 l 417 611 l 333 611 l 333 694 l 444 958 m 208 125 l 125 125 l 125 208 l 236 472 l 319 472 l 319 389 l 208 125 z "},"S":{"ha":778,"x_min":0,"x_max":653,"o":"m 125 111 l 528 111 l 611 28 l 583 0 l 69 0 l 42 28 l 125 111 m 542 125 l 542 472 l 597 528 l 625 528 l 653 497 l 653 69 l 625 42 l 542 125 m 119 597 l 306 597 l 319 542 l 306 486 l 125 486 l 69 542 l 119 597 m 0 583 l 0 1014 l 28 1042 l 111 958 l 111 611 l 56 556 l 28 556 l 0 583 m 69 1083 l 583 1083 l 611 1056 l 528 972 l 125 972 l 42 1056 l 69 1083 m 347 597 l 528 597 l 583 542 l 528 486 l 347 486 l 333 542 l 347 597 z "},"L":{"ha":778,"x_min":0,"x_max":611,"o":"m 125 111 l 528 111 l 611 28 l 583 0 l 69 0 l 42 28 l 125 111 m 0 69 l 0 500 l 28 528 l 56 528 l 111 472 l 111 125 l 28 42 l 0 69 m 0 583 l 0 1014 l 28 1042 l 111 958 l 111 611 l 56 556 l 28 556 l 0 583 z "},"J":{"ha":778,"x_min":0,"x_max":653,"o":"m 125 111 l 528 111 l 611 28 l 583 0 l 69 0 l 42 28 l 125 111 m 0 69 l 0 500 l 28 528 l 56 528 l 111 472 l 111 125 l 28 42 l 0 69 m 542 125 l 542 472 l 597 528 l 625 528 l 653 497 l 653 69 l 625 42 l 542 125 m 542 611 l 542 958 l 625 1042 l 653 1014 l 653 583 l 625 556 l 597 556 l 542 611 m 69 1083 l 583 1083 l 611 1056 l 528 972 l 125 972 l 42 1056 l 69 1083 z "},"H":{"ha":778,"x_min":0,"x_max":653,"o":"m 0 69 l 0 500 l 28 528 l 56 528 l 111 472 l 111 125 l 28 42 l 0 69 m 542 125 l 542 472 l 597 528 l 625 528 l 653 497 l 653 69 l 625 42 l 542 125 m 119 597 l 306 597 l 319 542 l 306 486 l 125 486 l 69 542 l 119 597 m 0 583 l 0 1014 l 28 1042 l 111 958 l 111 611 l 56 556 l 28 556 l 0 583 m 542 611 l 542 958 l 625 1042 l 653 1014 l 653 583 l 625 556 l 597 556 l 542 611 m 347 597 l 528 597 l 583 542 l 528 486 l 347 486 l 333 542 l 347 597 z "},"E":{"ha":778,"x_min":0,"x_max":611,"o":"m 125 111 l 528 111 l 611 28 l 583 0 l 69 0 l 42 28 l 125 111 m 0 69 l 0 500 l 28 528 l 56 528 l 111 472 l 111 125 l 28 42 l 0 69 m 119 597 l 306 597 l 319 542 l 306 486 l 125 486 l 69 542 l 119 597 m 0 583 l 0 1014 l 28 1042 l 111 958 l 111 611 l 56 556 l 28 556 l 0 583 m 69 1083 l 583 1083 l 611 1056 l 528 972 l 125 972 l 42 1056 l 69 1083 m 347 597 l 528 597 l 583 542 l 528 486 l 347 486 l 333 542 l 347 597 z "},"F":{"ha":778,"x_min":0,"x_max":611,"o":"m 0 69 l 0 500 l 28 528 l 56 528 l 111 472 l 111 125 l 28 42 l 0 69 m 119 597 l 306 597 l 319 542 l 306 486 l 125 486 l 69 542 l 119 597 m 0 583 l 0 1014 l 28 1042 l 111 958 l 111 611 l 56 556 l 28 556 l 0 583 m 69 1083 l 583 1083 l 611 1056 l 528 972 l 125 972 l 42 1056 l 69 1083 m 347 597 l 528 597 l 583 542 l 528 486 l 347 486 l 333 542 l 347 597 z "},"G":{"ha":778,"x_min":0,"x_max":653,"o":"m 125 111 l 528 111 l 611 28 l 583 0 l 69 0 l 42 28 l 125 111 m 0 69 l 0 500 l 28 528 l 56 528 l 111 472 l 111 125 l 28 42 l 0 69 m 542 125 l 542 472 l 597 528 l 625 528 l 653 497 l 653 69 l 625 42 l 542 125 m 0 583 l 0 1014 l 28 1042 l 111 958 l 111 611 l 56 556 l 28 556 l 0 583 m 69 1083 l 583 1083 l 611 1056 l 528 972 l 125 972 l 42 1056 l 69 1083 m 347 597 l 528 597 l 583 542 l 528 486 l 347 486 l 333 542 l 347 597 z "},"A":{"ha":778,"x_min":0,"x_max":653,"o":"m 0 69 l 0 500 l 28 528 l 56 528 l 111 472 l 111 125 l 28 42 l 0 69 m 542 125 l 542 472 l 597 528 l 625 528 l 653 497 l 653 69 l 625 42 l 542 125 m 119 597 l 306 597 l 319 542 l 306 486 l 125 486 l 69 542 l 119 597 m 0 583 l 0 1014 l 28 1042 l 111 958 l 111 611 l 56 556 l 28 556 l 0 583 m 542 611 l 542 958 l 625 1042 l 653 1014 l 653 583 l 625 556 l 597 556 l 542 611 m 69 1083 l 583 1083 l 611 1056 l 528 972 l 125 972 l 42 1056 l 69 1083 m 347 597 l 528 597 l 583 542 l 528 486 l 347 486 l 333 542 l 347 597 z "},"C":{"ha":778,"x_min":0,"x_max":611,"o":"m 125 111 l 528 111 l 611 28 l 583 0 l 69 0 l 42 28 l 125 111 m 0 69 l 0 500 l 28 528 l 56 528 l 111 472 l 111 125 l 28 42 l 0 69 m 0 583 l 0 1014 l 28 1042 l 111 958 l 111 611 l 56 556 l 28 556 l 0 583 m 69 1083 l 583 1083 l 611 1056 l 528 972 l 125 972 l 42 1056 l 69 1083 z "},"B":{"ha":778,"x_min":0,"x_max":653,"o":"m 125 111 l 528 111 l 611 28 l 583 0 l 69 0 l 42 28 l 125 111 m 0 69 l 0 500 l 28 528 l 56 528 l 111 472 l 111 125 l 28 42 l 0 69 m 542 125 l 542 472 l 597 528 l 625 528 l 653 497 l 653 69 l 625 42 l 542 125 m 119 597 l 306 597 l 319 542 l 306 486 l 125 486 l 69 542 l 119 597 m 0 583 l 0 1014 l 28 1042 l 111 958 l 111 611 l 56 556 l 28 556 l 0 583 m 347 597 l 528 597 l 583 542 l 528 486 l 347 486 l 333 542 l 347 597 z "},"D":{"ha":778,"x_min":0,"x_max":653,"o":"m 125 111 l 528 111 l 611 28 l 583 0 l 69 0 l 42 28 l 125 111 m 0 69 l 0 500 l 28 528 l 56 528 l 111 472 l 111 125 l 28 42 l 0 69 m 542 125 l 542 472 l 597 528 l 625 528 l 653 497 l 653 69 l 625 42 l 542 125 m 119 597 l 306 597 l 319 542 l 306 486 l 125 486 l 69 542 l 119 597 m 542 611 l 542 958 l 625 1042 l 653 1014 l 653 583 l 625 556 l 597 556 l 542 611 m 347 597 l 528 597 l 583 542 l 528 486 l 347 486 l 333 542 l 347 597 z "},"I":{"ha":778,"x_min":42,"x_max":611,"o":"m 125 111 l 528 111 l 611 28 l 583 0 l 69 0 l 42 28 l 125 111 m 69 1083 l 583 1083 l 611 1056 l 528 972 l 125 972 l 42 1056 l 69 1083 m 271 958 l 382 958 l 382 833 l 347 750 l 306 750 l 271 833 l 271 958 m 271 250 l 306 333 l 347 333 l 382 250 l 382 125 l 271 125 l 271 250 z "},"K":{"ha":778,"x_min":0,"x_max":528,"o":"m 0 69 l 0 500 l 28 528 l 56 528 l 111 472 l 111 125 l 28 42 l 0 69 m 119 597 l 306 597 l 319 542 l 306 486 l 125 486 l 69 542 l 119 597 m 0 583 l 0 1014 l 28 1042 l 111 958 l 111 611 l 56 556 l 28 556 l 0 583 m 444 958 l 528 958 l 528 875 l 417 611 l 333 611 l 333 694 l 444 958 m 333 389 l 333 472 l 417 472 l 528 208 l 528 125 l 444 125 l 333 389 z "},"a":{"ha":778,"x_min":0,"x_max":653,"o":"m 0 69 l 0 500 l 28 528 l 56 528 l 111 472 l 111 125 l 28 42 l 0 69 m 542 125 l 542 472 l 597 528 l 625 528 l 653 497 l 653 69 l 625 42 l 542 125 m 119 597 l 306 597 l 319 542 l 306 486 l 125 486 l 69 542 l 119 597 m 0 583 l 0 1014 l 28 1042 l 111 958 l 111 611 l 56 556 l 28 556 l 0 583 m 542 611 l 542 958 l 625 1042 l 653 1014 l 653 583 l 625 556 l 597 556 l 542 611 m 69 1083 l 583 1083 l 611 1056 l 528 972 l 125 972 l 42 1056 l 69 1083 m 347 597 l 528 597 l 583 542 l 528 486 l 347 486 l 333 542 l 347 597 z "},"b":{"ha":778,"x_min":0,"x_max":653,"o":"m 125 111 l 528 111 l 611 28 l 583 0 l 69 0 l 42 28 l 125 111 m 0 69 l 0 500 l 28 528 l 56 528 l 111 472 l 111 125 l 28 42 l 0 69 m 542 125 l 542 472 l 597 528 l 625 528 l 653 497 l 653 69 l 625 42 l 542 125 m 119 597 l 306 597 l 319 542 l 306 486 l 125 486 l 69 542 l 119 597 m 0 583 l 0 1014 l 28 1042 l 111 958 l 111 611 l 56 556 l 28 556 l 0 583 m 347 597 l 528 597 l 583 542 l 528 486 l 347 486 l 333 542 l 347 597 z "},"c":{"ha":778,"x_min":0,"x_max":611,"o":"m 125 111 l 528 111 l 611 28 l 583 0 l 69 0 l 42 28 l 125 111 m 0 69 l 0 500 l 28 528 l 56 528 l 111 472 l 111 125 l 28 42 l 0 69 m 0 583 l 0 1014 l 28 1042 l 111 958 l 111 611 l 56 556 l 28 556 l 0 583 m 69 1083 l 583 1083 l 611 1056 l 528 972 l 125 972 l 42 1056 l 69 1083 z "},"d":{"ha":778,"x_min":0,"x_max":653,"o":"m 125 111 l 528 111 l 611 28 l 583 0 l 69 0 l 42 28 l 125 111 m 0 69 l 0 500 l 28 528 l 56 528 l 111 472 l 111 125 l 28 42 l 0 69 m 542 125 l 542 472 l 597 528 l 625 528 l 653 497 l 653 69 l 625 42 l 542 125 m 119 597 l 306 597 l 319 542 l 306 486 l 125 486 l 69 542 l 119 597 m 542 611 l 542 958 l 625 1042 l 653 1014 l 653 583 l 625 556 l 597 556 l 542 611 m 347 597 l 528 597 l 583 542 l 528 486 l 347 486 l 333 542 l 347 597 z "},"e":{"ha":778,"x_min":0,"x_max":611,"o":"m 125 111 l 528 111 l 611 28 l 583 0 l 69 0 l 42 28 l 125 111 m 0 69 l 0 500 l 28 528 l 56 528 l 111 472 l 111 125 l 28 42 l 0 69 m 119 597 l 306 597 l 319 542 l 306 486 l 125 486 l 69 542 l 119 597 m 0 583 l 0 1014 l 28 1042 l 111 958 l 111 611 l 56 556 l 28 556 l 0 583 m 69 1083 l 583 1083 l 611 1056 l 528 972 l 125 972 l 42 1056 l 69 1083 m 347 597 l 528 597 l 583 542 l 528 486 l 347 486 l 333 542 l 347 597 z "},"f":{"ha":778,"x_min":0,"x_max":611,"o":"m 0 69 l 0 500 l 28 528 l 56 528 l 111 472 l 111 125 l 28 42 l 0 69 m 119 597 l 306 597 l 319 542 l 306 486 l 125 486 l 69 542 l 119 597 m 0 583 l 0 1014 l 28 1042 l 111 958 l 111 611 l 56 556 l 28 556 l 0 583 m 69 1083 l 583 1083 l 611 1056 l 528 972 l 125 972 l 42 1056 l 69 1083 m 347 597 l 528 597 l 583 542 l 528 486 l 347 486 l 333 542 l 347 597 z "},"g":{"ha":778,"x_min":0,"x_max":653,"o":"m 125 111 l 528 111 l 611 28 l 583 0 l 69 0 l 42 28 l 125 111 m 0 69 l 0 500 l 28 528 l 56 528 l 111 472 l 111 125 l 28 42 l 0 69 m 542 125 l 542 472 l 597 528 l 625 528 l 653 497 l 653 69 l 625 42 l 542 125 m 0 583 l 0 1014 l 28 1042 l 111 958 l 111 611 l 56 556 l 28 556 l 0 583 m 69 1083 l 583 1083 l 611 1056 l 528 972 l 125 972 l 42 1056 l 69 1083 m 347 597 l 528 597 l 583 542 l 528 486 l 347 486 l 333 542 l 347 597 z "},"h":{"ha":778,"x_min":0,"x_max":653,"o":"m 0 69 l 0 500 l 28 528 l 56 528 l 111 472 l 111 125 l 28 42 l 0 69 m 542 125 l 542 472 l 597 528 l 625 528 l 653 497 l 653 69 l 625 42 l 542 125 m 119 597 l 306 597 l 319 542 l 306 486 l 125 486 l 69 542 l 119 597 m 0 583 l 0 1014 l 28 1042 l 111 958 l 111 611 l 56 556 l 28 556 l 0 583 m 542 611 l 542 958 l 625 1042 l 653 1014 l 653 583 l 625 556 l 597 556 l 542 611 m 347 597 l 528 597 l 583 542 l 528 486 l 347 486 l 333 542 l 347 597 z "},"i":{"ha":778,"x_min":42,"x_max":611,"o":"m 125 111 l 528 111 l 611 28 l 583 0 l 69 0 l 42 28 l 125 111 m 69 1083 l 583 1083 l 611 1056 l 528 972 l 125 972 l 42 1056 l 69 1083 m 271 958 l 382 958 l 382 833 l 347 750 l 306 750 l 271 833 l 271 958 m 271 250 l 306 333 l 347 333 l 382 250 l 382 125 l 271 125 l 271 250 z "},"j":{"ha":778,"x_min":0,"x_max":653,"o":"m 125 111 l 528 111 l 611 28 l 583 0 l 69 0 l 42 28 l 125 111 m 0 69 l 0 500 l 28 528 l 56 528 l 111 472 l 111 125 l 28 42 l 0 69 m 542 125 l 542 472 l 597 528 l 625 528 l 653 497 l 653 69 l 625 42 l 542 125 m 542 611 l 542 958 l 625 1042 l 653 1014 l 653 583 l 625 556 l 597 556 l 542 611 m 69 1083 l 583 1083 l 611 1056 l 528 972 l 125 972 l 42 1056 l 69 1083 z "},"k":{"ha":778,"x_min":0,"x_max":528,"o":"m 0 69 l 0 500 l 28 528 l 56 528 l 111 472 l 111 125 l 28 42 l 0 69 m 119 597 l 306 597 l 319 542 l 306 486 l 125 486 l 69 542 l 119 597 m 0 583 l 0 1014 l 28 1042 l 111 958 l 111 611 l 56 556 l 28 556 l 0 583 m 444 958 l 528 958 l 528 875 l 417 611 l 333 611 l 333 694 l 444 958 m 333 389 l 333 472 l 417 472 l 528 208 l 528 125 l 444 125 l 333 389 z "},"l":{"ha":778,"x_min":0,"x_max":611,"o":"m 125 111 l 528 111 l 611 28 l 583 0 l 69 0 l 42 28 l 125 111 m 0 69 l 0 500 l 28 528 l 56 528 l 111 472 l 111 125 l 28 42 l 0 69 m 0 583 l 0 1014 l 28 1042 l 111 958 l 111 611 l 56 556 l 28 556 l 0 583 z "},"m":{"ha":778,"x_min":0,"x_max":653,"o":"m 0 69 l 0 500 l 28 528 l 56 528 l 111 472 l 111 125 l 28 42 l 0 69 m 542 125 l 542 472 l 597 528 l 625 528 l 653 497 l 653 69 l 625 42 l 542 125 m 0 583 l 0 1014 l 28 1042 l 111 958 l 111 611 l 56 556 l 28 556 l 0 583 m 542 611 l 542 958 l 625 1042 l 653 1014 l 653 583 l 625 556 l 597 556 l 542 611 m 69 1083 l 583 1083 l 611 1056 l 528 972 l 125 972 l 42 1056 l 69 1083 m 271 958 l 382 958 l 382 833 l 347 750 l 306 750 l 271 833 l 271 958 z "},"n":{"ha":778,"x_min":0,"x_max":653,"o":"m 0 69 l 0 500 l 28 528 l 56 528 l 111 472 l 111 125 l 28 42 l 0 69 m 542 125 l 542 472 l 597 528 l 625 528 l 653 497 l 653 69 l 625 42 l 542 125 m 0 583 l 0 1014 l 28 1042 l 111 958 l 111 611 l 56 556 l 28 556 l 0 583 m 542 611 l 542 958 l 625 1042 l 653 1014 l 653 583 l 625 556 l 597 556 l 542 611 m 319 694 l 319 611 l 236 611 l 125 875 l 125 958 l 208 958 l 319 694 m 333 389 l 333 472 l 417 472 l 528 208 l 528 125 l 444 125 l 333 389 z "},"o":{"ha":778,"x_min":0,"x_max":653,"o":"m 125 111 l 528 111 l 611 28 l 583 0 l 69 0 l 42 28 l 125 111 m 0 69 l 0 500 l 28 528 l 56 528 l 111 472 l 111 125 l 28 42 l 0 69 m 542 125 l 542 472 l 597 528 l 625 528 l 653 497 l 653 69 l 625 42 l 542 125 m 0 583 l 0 1014 l 28 1042 l 111 958 l 111 611 l 56 556 l 28 556 l 0 583 m 542 611 l 542 958 l 625 1042 l 653 1014 l 653 583 l 625 556 l 597 556 l 542 611 m 69 1083 l 583 1083 l 611 1056 l 528 972 l 125 972 l 42 1056 l 69 1083 z "},"p":{"ha":778,"x_min":0,"x_max":653,"o":"m 0 69 l 0 500 l 28 528 l 56 528 l 111 472 l 111 125 l 28 42 l 0 69 m 119 597 l 306 597 l 319 542 l 306 486 l 125 486 l 69 542 l 119 597 m 0 583 l 0 1014 l 28 1042 l 111 958 l 111 611 l 56 556 l 28 556 l 0 583 m 542 611 l 542 958 l 625 1042 l 653 1014 l 653 583 l 625 556 l 597 556 l 542 611 m 69 1083 l 583 1083 l 611 1056 l 528 972 l 125 972 l 42 1056 l 69 1083 m 347 597 l 528 597 l 583 542 l 528 486 l 347 486 l 333 542 l 347 597 z "},"q":{"ha":778,"x_min":0,"x_max":653,"o":"m 125 111 l 528 111 l 611 28 l 583 0 l 69 0 l 42 28 l 125 111 m 0 69 l 0 500 l 28 528 l 56 528 l 111 472 l 111 125 l 28 42 l 0 69 m 542 125 l 542 472 l 597 528 l 625 528 l 653 497 l 653 69 l 625 42 l 542 125 m 0 583 l 0 1014 l 28 1042 l 111 958 l 111 611 l 56 556 l 28 556 l 0 583 m 542 611 l 542 958 l 625 1042 l 653 1014 l 653 583 l 625 556 l 597 556 l 542 611 m 69 1083 l 583 1083 l 611 1056 l 528 972 l 125 972 l 42 1056 l 69 1083 m 333 389 l 333 472 l 417 472 l 528 208 l 528 125 l 444 125 l 333 389 z "},"r":{"ha":778,"x_min":0,"x_max":653,"o":"m 0 69 l 0 500 l 28 528 l 56 528 l 111 472 l 111 125 l 28 42 l 0 69 m 119 597 l 306 597 l 319 542 l 306 486 l 125 486 l 69 542 l 119 597 m 0 583 l 0 1014 l 28 1042 l 111 958 l 111 611 l 56 556 l 28 556 l 0 583 m 542 611 l 542 958 l 625 1042 l 653 1014 l 653 583 l 625 556 l 597 556 l 542 611 m 69 1083 l 583 1083 l 611 1056 l 528 972 l 125 972 l 42 1056 l 69 1083 m 347 597 l 528 597 l 583 542 l 528 486 l 347 486 l 333 542 l 347 597 m 333 389 l 333 472 l 417 472 l 528 208 l 528 125 l 444 125 l 333 389 z "},"s":{"ha":778,"x_min":0,"x_max":653,"o":"m 125 111 l 528 111 l 611 28 l 583 0 l 69 0 l 42 28 l 125 111 m 542 125 l 542 472 l 597 528 l 625 528 l 653 497 l 653 69 l 625 42 l 542 125 m 119 597 l 306 597 l 319 542 l 306 486 l 125 486 l 69 542 l 119 597 m 0 583 l 0 1014 l 28 1042 l 111 958 l 111 611 l 56 556 l 28 556 l 0 583 m 69 1083 l 583 1083 l 611 1056 l 528 972 l 125 972 l 42 1056 l 69 1083 m 347 597 l 528 597 l 583 542 l 528 486 l 347 486 l 333 542 l 347 597 z "},"t":{"ha":778,"x_min":42,"x_max":611,"o":"m 69 1083 l 583 1083 l 611 1056 l 528 972 l 125 972 l 42 1056 l 69 1083 m 271 958 l 382 958 l 382 833 l 347 750 l 306 750 l 271 833 l 271 958 m 271 250 l 306 333 l 347 333 l 382 250 l 382 125 l 271 125 l 271 250 z "},"u":{"ha":778,"x_min":0,"x_max":653,"o":"m 125 111 l 528 111 l 611 28 l 583 0 l 69 0 l 42 28 l 125 111 m 0 69 l 0 500 l 28 528 l 56 528 l 111 472 l 111 125 l 28 42 l 0 69 m 542 125 l 542 472 l 597 528 l 625 528 l 653 497 l 653 69 l 625 42 l 542 125 m 0 583 l 0 1014 l 28 1042 l 111 958 l 111 611 l 56 556 l 28 556 l 0 583 m 542 611 l 542 958 l 625 1042 l 653 1014 l 653 583 l 625 556 l 597 556 l 542 611 z "},"v":{"ha":778,"x_min":125,"x_max":653,"o":"m 542 125 l 542 472 l 597 528 l 625 528 l 653 497 l 653 69 l 625 42 l 542 125 m 542 611 l 542 958 l 625 1042 l 653 1014 l 653 583 l 625 556 l 597 556 l 542 611 m 319 694 l 319 611 l 236 611 l 125 875 l 125 958 l 208 958 l 319 694 m 333 389 l 333 472 l 417 472 l 528 208 l 528 125 l 444 125 l 333 389 z "},"w":{"ha":778,"x_min":0,"x_max":653,"o":"m 125 111 l 528 111 l 611 28 l 583 0 l 69 0 l 42 28 l 125 111 m 0 69 l 0 500 l 28 528 l 56 528 l 111 472 l 111 125 l 28 42 l 0 69 m 542 125 l 542 472 l 597 528 l 625 528 l 653 497 l 653 69 l 625 42 l 542 125 m 0 583 l 0 1014 l 28 1042 l 111 958 l 111 611 l 56 556 l 28 556 l 0 583 m 542 611 l 542 958 l 625 1042 l 653 1014 l 653 583 l 625 556 l 597 556 l 542 611 m 271 250 l 306 333 l 347 333 l 382 250 l 382 125 l 271 125 l 271 250 z "},"x":{"ha":778,"x_min":125,"x_max":528,"o":"m 319 694 l 319 611 l 236 611 l 125 875 l 125 958 l 208 958 l 319 694 m 444 958 l 528 958 l 528 875 l 417 611 l 333 611 l 333 694 l 444 958 m 208 125 l 125 125 l 125 208 l 236 472 l 319 472 l 319 389 l 208 125 m 333 389 l 333 472 l 417 472 l 528 208 l 528 125 l 444 125 l 333 389 z "},"y":{"ha":778,"x_min":0,"x_max":653,"o":"m 125 111 l 528 111 l 611 28 l 583 0 l 69 0 l 42 28 l 125 111 m 542 125 l 542 472 l 597 528 l 625 528 l 653 497 l 653 69 l 625 42 l 542 125 m 119 597 l 306 597 l 319 542 l 306 486 l 125 486 l 69 542 l 119 597 m 0 583 l 0 1014 l 28 1042 l 111 958 l 111 611 l 56 556 l 28 556 l 0 583 m 542 611 l 542 958 l 625 1042 l 653 1014 l 653 583 l 625 556 l 597 556 l 542 611 m 347 597 l 528 597 l 583 542 l 528 486 l 347 486 l 333 542 l 347 597 z "},"z":{"ha":778,"x_min":42,"x_max":611,"o":"m 125 111 l 528 111 l 611 28 l 583 0 l 69 0 l 42 28 l 125 111 m 69 1083 l 583 1083 l 611 1056 l 528 972 l 125 972 l 42 1056 l 69 1083 m 444 958 l 528 958 l 528 875 l 417 611 l 333 611 l 333 694 l 444 958 m 208 125 l 125 125 l 125 208 l 236 472 l 319 472 l 319 389 l 208 125 z "},"|":{"ha":778,"x_min":542,"x_max":653,"o":"m 542 125 l 542 472 l 597 528 l 625 528 l 653 497 l 653 69 l 625 42 l 542 125 m 542 611 l 542 958 l 625 1042 l 653 1014 l 653 583 l 625 556 l 597 556 l 542 611 z "},"/":{"ha":778,"x_min":125,"x_max":528,"o":"m 444 958 l 528 958 l 528 875 l 417 611 l 333 611 l 333 694 l 444 958 m 208 125 l 125 125 l 125 208 l 236 472 l 319 472 l 319 389 l 208 125 z "},"_":{"ha":778,"x_min":42,"x_max":611,"o":"m 125 111 l 528 111 l 611 28 l 583 0 l 69 0 l 42 28 l 125 111 z "},"\\":{"ha":778,"x_min":125,"x_max":528,"o":"m 319 694 l 319 611 l 236 611 l 125 875 l 125 958 l 208 958 l 319 694 m 333 389 l 333 472 l 417 472 l 528 208 l 528 125 l 444 125 l 333 389 z "},"[":{"ha":778,"x_min":0,"x_max":611,"o":"m 125 111 l 528 111 l 611 28 l 583 0 l 69 0 l 42 28 l 125 111 m 0 69 l 0 500 l 28 528 l 56 528 l 111 472 l 111 125 l 28 42 l 0 69 m 0 583 l 0 1014 l 28 1042 l 111 958 l 111 611 l 56 556 l 28 556 l 0 583 m 69 1083 l 583 1083 l 611 1056 l 528 972 l 125 972 l 42 1056 l 69 1083 z "},"]":{"ha":778,"x_min":0,"x_max":611,"o":"m 569 28 l 542 0 l 28 0 l 0 28 l 83 111 l 486 111 l 569 28 m 583 42 l 500 125 l 500 472 l 556 528 l 583 528 l 611 500 l 611 69 l 583 42 m 583 556 l 556 556 l 500 611 l 500 958 l 583 1042 l 611 1014 l 611 583 l 583 556 m 569 1056 l 486 972 l 83 972 l 0 1056 l 28 1083 l 542 1083 l 569 1056 z "},"^":{"ha":778,"x_min":0,"x_max":653,"o":"m 0 583 l 0 1014 l 28 1042 l 111 958 l 111 611 l 56 556 l 28 556 l 0 583 m 542 611 l 542 958 l 625 1042 l 653 1014 l 653 583 l 625 556 l 597 556 l 542 611 m 69 1083 l 583 1083 l 611 1056 l 528 972 l 125 972 l 42 1056 l 69 1083 z "},"`":{"ha":778,"x_min":125,"x_max":319,"o":"m 319 694 l 319 611 l 236 611 l 125 875 l 125 958 l 208 958 l 319 694 z "},"-":{"ha":778,"x_min":69,"x_max":583,"o":"m 119 597 l 306 597 l 319 542 l 306 486 l 125 486 l 69 542 l 119 597 m 347 597 l 528 597 l 583 542 l 528 486 l 347 486 l 333 542 l 347 597 z "},"+":{"ha":778,"x_min":69,"x_max":583,"o":"m 69 542 l 125 486 l 306 486 l 319 542 l 306 597 l 119 597 l 69 542 m 333 542 l 347 486 l 528 486 l 583 542 l 528 597 l 347 597 l 333 542 m 271 958 l 382 958 l 382 833 l 347 750 l 306 750 l 271 833 l 271 958 m 271 250 l 306 333 l 347 333 l 382 250 l 382 125 l 271 125 l 271 250 z "},"*":{"ha":778,"x_min":69,"x_max":583,"o":"m 69 542 l 125 486 l 306 486 l 319 542 l 306 597 l 119 597 l 69 542 m 333 542 l 347 486 l 528 486 l 583 542 l 528 597 l 347 597 l 333 542 m 319 694 l 319 611 l 236 611 l 125 875 l 125 958 l 208 958 l 319 694 m 444 958 l 528 958 l 528 875 l 417 611 l 333 611 l 333 694 l 444 958 m 208 125 l 125 125 l 125 208 l 236 472 l 319 472 l 319 389 l 208 125 m 333 389 l 333 472 l 417 472 l 528 208 l 528 125 l 444 125 l 333 389 z "},"?":{"ha":778,"x_min":0,"x_max":653,"o":"m 0 69 l 0 500 l 28 528 l 56 528 l 111 472 l 111 125 l 28 42 l 0 69 m 119 597 l 306 597 l 319 542 l 306 486 l 125 486 l 69 542 l 119 597 m 542 611 l 542 958 l 625 1042 l 653 1014 l 653 583 l 625 556 l 597 556 l 542 611 m 69 1083 l 583 1083 l 611 1056 l 528 972 l 125 972 l 42 1056 l 69 1083 m 347 597 l 528 597 l 583 542 l 528 486 l 347 486 l 333 542 l 347 597 z "},"@":{"ha":778,"x_min":0,"x_max":653,"o":"m 125 111 l 528 111 l 611 28 l 583 0 l 69 0 l 42 28 l 125 111 m 0 69 l 0 500 l 28 528 l 56 528 l 111 472 l 111 125 l 28 42 l 0 69 m 0 583 l 0 1014 l 28 1042 l 111 958 l 111 611 l 56 556 l 28 556 l 0 583 m 542 611 l 542 958 l 625 1042 l 653 1014 l 653 583 l 625 556 l 597 556 l 542 611 m 69 1083 l 583 1083 l 611 1056 l 528 972 l 125 972 l 42 1056 l 69 1083 m 347 597 l 528 597 l 583 542 l 528 486 l 347 486 l 333 542 l 347 597 z "},">":{"ha":778,"x_min":125,"x_max":319,"o":"m 319 694 l 319 611 l 236 611 l 125 875 l 125 958 l 208 958 l 319 694 m 208 125 l 125 125 l 125 208 l 236 472 l 319 472 l 319 389 l 208 125 z "},"=":{"ha":778,"x_min":42,"x_max":611,"o":"m 125 111 l 528 111 l 611 28 l 583 0 l 69 0 l 42 28 l 125 111 m 119 597 l 306 597 l 319 542 l 306 486 l 125 486 l 69 542 l 119 597 m 347 597 l 528 597 l 583 542 l 528 486 l 347 486 l 333 542 l 347 597 z "},"(":{"ha":778,"x_min":333,"x_max":528,"o":"m 444 958 l 528 958 l 528 875 l 417 611 l 333 611 l 333 694 l 444 958 m 333 389 l 333 472 l 417 472 l 528 208 l 528 125 l 444 125 l 333 389 z "},")":{"ha":778,"x_min":125,"x_max":319,"o":"m 319 694 l 319 611 l 236 611 l 125 875 l 125 958 l 208 958 l 319 694 m 208 125 l 125 125 l 125 208 l 236 472 l 319 472 l 319 389 l 208 125 z "},"'":{"ha":778,"x_min":0,"x_max":111,"o":"m 0 583 l 0 1014 l 28 1042 l 111 958 l 111 611 l 56 556 l 28 556 l 0 583 z "},"{":{"ha":778,"x_min":0,"x_max":611,"o":"m 125 111 l 528 111 l 611 28 l 583 0 l 69 0 l 42 28 l 125 111 m 0 69 l 0 500 l 28 528 l 56 528 l 111 472 l 111 125 l 28 42 l 0 69 m 0 583 l 0 1014 l 28 1042 l 111 958 l 111 611 l 56 556 l 28 556 l 0 583 m 69 1083 l 583 1083 l 611 1056 l 528 972 l 125 972 l 42 1056 l 69 1083 m 119 597 l 306 597 l 319 542 l 306 486 l 125 486 l 69 542 l 119 597 z "},"}":{"ha":778,"x_min":42,"x_max":653,"o":"m 125 111 l 528 111 l 611 28 l 583 0 l 69 0 l 42 28 l 125 111 m 542 125 l 542 472 l 597 528 l 625 528 l 653 497 l 653 69 l 625 42 l 542 125 m 542 611 l 542 958 l 625 1042 l 653 1014 l 653 583 l 625 556 l 597 556 l 542 611 m 69 1083 l 583 1083 l 611 1056 l 528 972 l 125 972 l 42 1056 l 69 1083 m 347 597 l 528 597 l 583 542 l 528 486 l 347 486 l 333 542 l 347 597 z "},"~":{"ha":778,"x_min":125,"x_max":528,"o":"m 319 694 l 319 611 l 236 611 l 125 875 l 125 958 l 208 958 l 319 694 m 444 958 l 528 958 l 528 875 l 417 611 l 333 611 l 333 694 l 444 958 z "},".":{"ha":236,"x_min":0,"x_max":111,"o":"m 0 111 l 111 111 l 111 0 l 0 0 l 0 111 z "},",":{"ha":236,"x_min":0,"x_max":111,"o":"m 0 111 l 111 111 l 111 0 l 0 0 l 0 111 m 0 -56 l 111 -56 l 111 -167 l 0 -167 l 0 -56 z "},"%":{"ha":778,"x_min":0,"x_max":653,"o":"m 542 125 l 542 472 l 597 528 l 625 528 l 653 497 l 653 69 l 625 42 l 542 125 m 0 583 l 0 1014 l 28 1042 l 111 958 l 111 611 l 56 556 l 28 556 l 0 583 m 444 958 l 528 958 l 528 875 l 417 611 l 333 611 l 333 694 l 444 958 m 208 125 l 125 125 l 125 208 l 236 472 l 319 472 l 319 389 l 208 125 z "},"#":{"ha":778,"x_min":0,"x_max":653,"o":"m 0 69 l 0 500 l 28 528 l 56 528 l 111 472 l 111 125 l 28 42 l 0 69 m 542 125 l 542 472 l 597 528 l 625 528 l 653 497 l 653 69 l 625 42 l 542 125 m 0 583 l 0 1014 l 28 1042 l 111 958 l 111 611 l 56 556 l 28 556 l 0 583 m 542 611 l 542 958 l 625 1042 l 653 1014 l 653 583 l 625 556 l 597 556 l 542 611 z "},"\"":{"ha":778,"x_min":0,"x_max":653,"o":"m 0 583 l 0 1014 l 28 1042 l 111 958 l 111 611 l 56 556 l 28 556 l 0 583 m 542 611 l 542 958 l 625 1042 l 653 1014 l 653 583 l 625 556 l 597 556 l 542 611 z "},"$":{"ha":778,"x_min":0,"x_max":653,"o":"m 125 111 l 528 111 l 611 28 l 583 0 l 69 0 l 42 28 l 125 111 m 542 125 l 542 472 l 597 528 l 625 528 l 653 497 l 653 69 l 625 42 l 542 125 m 119 597 l 306 597 l 319 542 l 306 486 l 125 486 l 69 542 l 119 597 m 0 583 l 0 1014 l 28 1042 l 111 958 l 111 611 l 56 556 l 28 556 l 0 583 m 69 1083 l 583 1083 l 611 1056 l 528 972 l 125 972 l 42 1056 l 69 1083 m 347 597 l 528 597 l 583 542 l 528 486 l 347 486 l 333 542 l 347 597 m 271 958 l 382 958 l 382 833 l 347 750 l 306 750 l 271 833 l 271 958 m 271 250 l 306 333 l 347 333 l 382 250 l 382 125 l 271 125 l 271 250 z "},"&":{"ha":778,"x_min":42,"x_max":611,"o":"m 125 111 l 528 111 l 611 28 l 583 0 l 69 0 l 42 28 l 125 111 m 69 1083 l 583 1083 l 611 1056 l 528 972 l 125 972 l 42 1056 l 69 1083 m 333 389 l 333 472 l 417 472 l 528 208 l 528 125 l 444 125 l 333 389 m 444 958 l 528 958 l 528 875 l 417 611 l 333 611 l 333 694 l 444 958 m 319 694 l 319 611 l 236 611 l 125 875 l 125 958 l 208 958 l 319 694 m 208 125 l 125 125 l 125 208 l 236 472 l 319 472 l 319 389 l 208 125 z "},":":{"ha":236,"x_min":0,"x_max":111,"o":"m 0 361 l 111 361 l 111 250 l 0 250 l 0 361 m 0 847 l 111 847 l 111 736 l 0 736 l 0 847 z "},"!":{"ha":778,"x_min":0,"x_max":111,"o":"m 0 69 l 0 500 l 28 528 l 56 528 l 111 472 l 111 125 l 28 42 l 0 69 m 0 583 l 0 1014 l 28 1042 l 111 958 l 111 611 l 56 556 l 28 556 l 0 583 z "},"€":{"ha":778,"x_min":42,"x_max":611,"o":"m 125 111 l 528 111 l 611 28 l 583 0 l 69 0 l 42 28 l 125 111 m 69 1083 l 583 1083 l 611 1056 l 528 972 l 125 972 l 42 1056 l 69 1083 m 319 694 l 319 611 l 236 611 l 125 875 l 125 958 l 208 958 l 319 694 m 208 125 l 125 125 l 125 208 l 236 472 l 319 472 l 319 389 l 208 125 z "},"ÿ":{"ha":778,"x_min":0,"x_max":653,"o":"m 125 111 l 528 111 l 611 28 l 583 0 l 69 0 l 42 28 l 125 111 m 0 69 l 0 500 l 28 528 l 56 528 l 111 472 l 111 125 l 28 42 l 0 69 m 542 125 l 542 472 l 597 528 l 625 528 l 653 497 l 653 69 l 625 42 l 542 125 m 119 597 l 306 597 l 319 542 l 306 486 l 125 486 l 69 542 l 119 597 m 0 583 l 0 1014 l 28 1042 l 111 958 l 111 611 l 56 556 l 28 556 l 0 583 m 542 611 l 542 958 l 625 1042 l 653 1014 l 653 583 l 625 556 l 597 556 l 542 611 m 69 1083 l 583 1083 l 611 1056 l 528 972 l 125 972 l 42 1056 l 69 1083 m 347 597 l 528 597 l 583 542 l 528 486 l 347 486 l 333 542 l 347 597 m 319 694 l 319 611 l 236 611 l 125 875 l 125 958 l 208 958 l 319 694 m 444 958 l 528 958 l 528 875 l 417 611 l 333 611 l 333 694 l 444 958 m 208 125 l 125 125 l 125 208 l 236 472 l 319 472 l 319 389 l 208 125 m 333 389 l 333 472 l 417 472 l 528 208 l 528 125 l 444 125 l 333 389 m 271 958 l 382 958 l 382 833 l 347 750 l 306 750 l 271 833 l 271 958 m 271 250 l 306 333 l 347 333 l 382 250 l 382 125 l 271 125 l 271 250 z "},"‚":{"ha":778,"x_min":0,"x_max":653,"o":"m 119 597 l 306 597 l 319 542 l 306 486 l 125 486 l 69 542 l 119 597 m 0 583 l 0 1014 l 28 1042 l 111 958 l 111 611 l 56 556 l 28 556 l 0 583 m 542 611 l 542 958 l 625 1042 l 653 1014 l 653 583 l 625 556 l 597 556 l 542 611 m 69 1083 l 583 1083 l 611 1056 l 528 972 l 125 972 l 42 1056 l 69 1083 m 347 597 l 528 597 l 583 542 l 528 486 l 347 486 l 333 542 l 347 597 z "},"¤":{"ha":778,"x_min":0,"x_max":653,"o":"m 125 111 l 528 111 l 611 28 l 583 0 l 69 0 l 42 28 l 125 111 m 0 69 l 0 500 l 28 528 l 56 528 l 111 472 l 111 125 l 28 42 l 0 69 m 542 125 l 542 472 l 597 528 l 625 528 l 653 497 l 653 69 l 625 42 l 542 125 m 119 597 l 306 597 l 319 542 l 306 486 l 125 486 l 69 542 l 119 597 m 347 597 l 528 597 l 583 542 l 528 486 l 347 486 l 333 542 l 347 597 z "},"¡":{"ha":778,"x_min":0,"x_max":111,"o":"m 0 69 l 0 500 l 28 528 l 56 528 l 111 472 l 111 125 l 28 42 l 0 69 m 0 583 l 0 1014 l 28 1042 l 111 958 l 111 611 l 56 556 l 28 556 l 0 583 z "},"¢":{"ha":778,"x_min":0,"x_max":611,"o":"m 125 111 l 528 111 l 611 28 l 583 0 l 69 0 l 42 28 l 125 111 m 0 69 l 0 500 l 28 528 l 56 528 l 111 472 l 111 125 l 28 42 l 0 69 m 0 583 l 0 1014 l 28 1042 l 111 958 l 111 611 l 56 556 l 28 556 l 0 583 m 69 1083 l 583 1083 l 611 1056 l 528 972 l 125 972 l 42 1056 l 69 1083 m 271 958 l 382 958 l 382 833 l 347 750 l 306 750 l 271 833 l 271 958 m 271 250 l 306 333 l 347 333 l 382 250 l 382 125 l 271 125 l 271 250 z "},"©":{"ha":778,"x_min":0,"x_max":611,"o":"m 125 111 l 528 111 l 611 28 l 583 0 l 69 0 l 42 28 l 125 111 m 0 69 l 0 500 l 28 528 l 56 528 l 111 472 l 111 125 l 28 42 l 0 69 m 119 597 l 306 597 l 319 542 l 306 486 l 125 486 l 69 542 l 119 597 m 347 597 l 528 597 l 583 542 l 528 486 l 347 486 l 333 542 l 347 597 z "},"‘":{"ha":778,"x_min":0,"x_max":111,"o":"m 0 583 l 0 1014 l 28 1042 l 111 958 l 111 611 l 56 556 l 28 556 l 0 583 z "},"’":{"ha":778,"x_min":0,"x_max":111,"o":"m 0 583 l 0 1014 l 28 1042 l 111 958 l 111 611 l 56 556 l 28 556 l 0 583 z "},"“":{"ha":778,"x_min":0,"x_max":653,"o":"m 0 583 l 0 1014 l 28 1042 l 111 958 l 111 611 l 56 556 l 28 556 l 0 583 m 542 611 l 542 958 l 625 1042 l 653 1014 l 653 583 l 625 556 l 597 556 l 542 611 z "},"”":{"ha":778,"x_min":0,"x_max":653,"o":"m 0 583 l 0 1014 l 28 1042 l 111 958 l 111 611 l 56 556 l 28 556 l 0 583 m 542 611 l 542 958 l 625 1042 l 653 1014 l 653 583 l 625 556 l 597 556 l 542 611 z "},"–":{"ha":778,"x_min":69,"x_max":583,"o":"m 119 597 l 306 597 l 319 542 l 306 486 l 125 486 l 69 542 l 119 597 m 347 597 l 528 597 l 583 542 l 528 486 l 347 486 l 333 542 l 347 597 z "},"—":{"ha":778,"x_min":69,"x_max":583,"o":"m 119 597 l 306 597 l 319 542 l 306 486 l 125 486 l 69 542 l 119 597 m 347 597 l 528 597 l 583 542 l 528 486 l 347 486 l 333 542 l 347 597 z "},"„":{"ha":778,"x_min":0,"x_max":653,"o":"m 0 69 l 0 500 l 28 528 l 56 528 l 111 472 l 111 125 l 28 42 l 0 69 m 542 125 l 542 472 l 597 528 l 625 528 l 653 497 l 653 69 l 625 42 l 542 125 z "},"¦":{"ha":778,"x_min":0,"x_max":111,"o":"m 0 69 l 0 500 l 28 528 l 56 528 l 111 472 l 111 125 l 28 42 l 0 69 m 0 583 l 0 1014 l 28 1042 l 111 958 l 111 611 l 56 556 l 28 556 l 0 583 z "},"‹":{"ha":778,"x_min":333,"x_max":583,"o":"m 333 542 l 347 486 l 528 486 l 583 542 l 528 597 l 347 597 l 333 542 m 444 958 l 528 958 l 528 875 l 417 611 l 333 611 l 333 694 l 444 958 m 333 389 l 333 472 l 417 472 l 528 208 l 528 125 l 444 125 l 333 389 z "},"›":{"ha":778,"x_min":69,"x_max":319,"o":"m 69 542 l 125 486 l 306 486 l 319 542 l 306 597 l 119 597 l 69 542 m 319 694 l 319 611 l 236 611 l 125 875 l 125 958 l 208 958 l 319 694 m 208 125 l 125 125 l 125 208 l 236 472 l 319 472 l 319 389 l 208 125 z "},"ˆ":{"ha":778,"x_min":0,"x_max":653,"o":"m 0 583 l 0 1014 l 28 1042 l 111 958 l 111 611 l 56 556 l 28 556 l 0 583 m 542 611 l 542 958 l 625 1042 l 653 1014 l 653 583 l 625 556 l 597 556 l 542 611 m 69 1083 l 583 1083 l 611 1056 l 528 972 l 125 972 l 42 1056 l 69 1083 z "},"¶":{"ha":778,"x_min":0,"x_max":653,"o":"m 0 69 l 0 500 l 28 528 l 56 528 l 111 472 l 111 125 l 28 42 l 0 69 m 542 125 l 542 472 l 597 528 l 625 528 l 653 497 l 653 69 l 625 42 l 542 125 m 0 583 l 0 1014 l 28 1042 l 111 958 l 111 611 l 56 556 l 28 556 l 0 583 m 542 611 l 542 958 l 625 1042 l 653 1014 l 653 583 l 625 556 l 597 556 l 542 611 m 69 1083 l 583 1083 l 611 1056 l 528 972 l 125 972 l 42 1056 l 69 1083 z "},"µ":{"ha":778,"x_min":0,"x_max":653,"o":"m 0 69 l 0 500 l 28 528 l 56 528 l 111 472 l 111 125 l 28 42 l 0 69 m 0 583 l 0 1014 l 28 1042 l 111 958 l 111 611 l 56 556 l 28 556 l 0 583 m 542 611 l 542 958 l 625 1042 l 653 1014 l 653 583 l 625 556 l 597 556 l 542 611 m 69 1083 l 583 1083 l 611 1056 l 528 972 l 125 972 l 42 1056 l 69 1083 m 271 958 l 382 958 l 382 833 l 347 750 l 306 750 l 271 833 l 271 958 z "},"−":{"ha":778,"x_min":69,"x_max":583,"o":"m 119 597 l 306 597 l 319 542 l 306 486 l 125 486 l 69 542 l 119 597 m 347 597 l 528 597 l 583 542 l 528 486 l 347 486 l 333 542 l 347 597 z "},"¬":{"ha":778,"x_min":0,"x_max":611,"o":"m 0 583 l 0 1014 l 28 1042 l 111 958 l 111 611 l 56 556 l 28 556 l 0 583 m 69 1083 l 583 1083 l 611 1056 l 528 972 l 125 972 l 42 1056 l 69 1083 z "},"ª":{"ha":778,"x_min":0,"x_max":653,"o":"m 125 111 l 528 111 l 611 28 l 583 0 l 69 0 l 42 28 l 125 111 m 0 69 l 0 500 l 28 528 l 56 528 l 111 472 l 111 125 l 28 42 l 0 69 m 542 125 l 542 472 l 597 528 l 625 528 l 653 497 l 653 69 l 625 42 l 542 125 m 119 597 l 306 597 l 319 542 l 306 486 l 125 486 l 69 542 l 119 597 m 542 611 l 542 958 l 625 1042 l 653 1014 l 653 583 l 625 556 l 597 556 l 542 611 m 69 1083 l 583 1083 l 611 1056 l 528 972 l 125 972 l 42 1056 l 69 1083 m 347 597 l 528 597 l 583 542 l 528 486 l 347 486 l 333 542 l 347 597 z "},"°":{"ha":778,"x_min":0,"x_max":653,"o":"m 119 597 l 306 597 l 319 542 l 306 486 l 125 486 l 69 542 l 119 597 m 0 583 l 0 1014 l 28 1042 l 111 958 l 111 611 l 56 556 l 28 556 l 0 583 m 542 611 l 542 958 l 625 1042 l 653 1014 l 653 583 l 625 556 l 597 556 l 542 611 m 69 1083 l 583 1083 l 611 1056 l 528 972 l 125 972 l 42 1056 l 69 1083 m 347 597 l 528 597 l 583 542 l 528 486 l 347 486 l 333 542 l 347 597 z "},"º":{"ha":778,"x_min":0,"x_max":653,"o":"m 119 597 l 306 597 l 319 542 l 306 486 l 125 486 l 69 542 l 119 597 m 0 583 l 0 1014 l 28 1042 l 111 958 l 111 611 l 56 556 l 28 556 l 0 583 m 542 611 l 542 958 l 625 1042 l 653 1014 l 653 583 l 625 556 l 597 556 l 542 611 m 69 1083 l 583 1083 l 611 1056 l 528 972 l 125 972 l 42 1056 l 69 1083 m 347 597 l 528 597 l 583 542 l 528 486 l 347 486 l 333 542 l 347 597 z "},"¹":{"ha":778,"x_min":0,"x_max":111,"o":"m 0 583 l 0 1014 l 28 1042 l 111 958 l 111 611 l 56 556 l 28 556 l 0 583 z "},"¿":{"ha":778,"x_min":0,"x_max":653,"o":"m 125 111 l 528 111 l 611 28 l 583 0 l 69 0 l 42 28 l 125 111 m 0 69 l 0 500 l 28 528 l 56 528 l 111 472 l 111 125 l 28 42 l 0 69 m 119 597 l 306 597 l 319 542 l 306 486 l 125 486 l 69 542 l 119 597 m 542 611 l 542 958 l 625 1042 l 653 1014 l 653 583 l 625 556 l 597 556 l 542 611 m 347 597 l 528 597 l 583 542 l 528 486 l 347 486 l 333 542 l 347 597 z "},"¨":{"ha":778,"x_min":0,"x_max":653,"o":"m 125 111 l 528 111 l 611 28 l 583 0 l 69 0 l 42 28 l 125 111 m 0 69 l 0 500 l 28 528 l 56 528 l 111 472 l 111 125 l 28 42 l 0 69 m 542 125 l 542 472 l 597 528 l 625 528 l 653 497 l 653 69 l 625 42 l 542 125 m 119 597 l 306 597 l 319 542 l 306 486 l 125 486 l 69 542 l 119 597 m 0 583 l 0 1014 l 28 1042 l 111 958 l 111 611 l 56 556 l 28 556 l 0 583 m 542 611 l 542 958 l 625 1042 l 653 1014 l 653 583 l 625 556 l 597 556 l 542 611 m 69 1083 l 583 1083 l 611 1056 l 528 972 l 125 972 l 42 1056 l 69 1083 m 347 597 l 528 597 l 583 542 l 528 486 l 347 486 l 333 542 l 347 597 m 264 1208 l 375 1208 l 375 1097 l 264 1097 l 264 1208 m 264 -14 l 375 -14 l 375 -125 l 264 -125 l 264 -14 z "}}}
